<svg id="visual" viewBox="0 0 900 600" width="900" height="600" xmlns="http://www.w3.org/2000/svg" xmlns:xlink="http://www.w3.org/1999/xlink" version="1.1"><rect x="0" y="0" width="900" height="600" fill="#f8f8f8"></rect><path d="M0 94L21.5 118.5C43 143 86 192 128.8 197.3C171.7 202.7 214.3 164.3 257.2 136.5C300 108.7 343 91.3 385.8 121.3C428.7 151.3 471.3 228.7 514.2 279.5C557 330.3 600 354.7 642.8 327.8C685.7 301 728.3 223 771.2 217C814 211 857 277 878.5 310L900 343L900 601L878.5 601C857 601 814 601 771.2 601C728.3 601 685.7 601 642.8 601C600 601 557 601 514.2 601C471.3 601 428.7 601 385.8 601C343 601 300 601 257.2 601C214.3 601 171.7 601 128.8 601C86 601 43 601 21.5 601L0 601Z" fill="#e9e3dd"></path><path d="M0 370L21.5 353.8C43 337.7 86 305.3 128.8 294.8C171.7 284.3 214.3 295.7 257.2 290.8C300 286 343 265 385.8 287.3C428.7 309.7 471.3 375.3 514.2 383.7C557 392 600 343 642.8 325.7C685.7 308.3 728.3 322.7 771.2 314.8C814 307 857 277 878.5 262L900 247L900 601L878.5 601C857 601 814 601 771.2 601C728.3 601 685.7 601 642.8 601C600 601 557 601 514.2 601C471.3 601 428.7 601 385.8 601C343 601 300 601 257.2 601C214.3 601 171.7 601 128.8 601C86 601 43 601 21.5 601L0 601Z" fill="#e3cab2"></path><path d="M0 461L21.5 449.2C43 437.3 86 413.7 128.8 403.5C171.7 393.3 214.3 396.7 257.2 382C300 367.3 343 334.7 385.8 316.7C428.7 298.7 471.3 295.3 514.2 313.5C557 331.7 600 371.3 642.8 397.8C685.7 424.3 728.3 437.7 771.2 415.7C814 393.7 857 336.3 878.5 307.7L900 279L900 601L878.5 601C857 601 814 601 771.2 601C728.3 601 685.7 601 642.8 601C600 601 557 601 514.2 601C471.3 601 428.7 601 385.8 601C343 601 300 601 257.2 601C214.3 601 171.7 601 128.8 601C86 601 43 601 21.5 601L0 601Z" fill="#dbb189"></path><path d="M0 480L21.5 465.5C43 451 86 422 128.8 409C171.7 396 214.3 399 257.2 401.2C300 403.3 343 404.7 385.8 412.8C428.7 421 471.3 436 514.2 435.2C557 434.3 600 417.7 642.8 412.7C685.7 407.7 728.3 414.3 771.2 435C814 455.7 857 490.3 878.5 507.7L900 525L900 601L878.5 601C857 601 814 601 771.2 601C728.3 601 685.7 601 642.8 601C600 601 557 601 514.2 601C471.3 601 428.7 601 385.8 601C343 601 300 601 257.2 601C214.3 601 171.7 601 128.8 601C86 601 43 601 21.5 601L0 601Z" fill="#d29762"></path><path d="M0 450L21.5 457.7C43 465.3 86 480.7 128.8 495.8C171.7 511 214.3 526 257.2 528.8C300 531.7 343 522.3 385.8 510.2C428.7 498 471.3 483 514.2 479.2C557 475.3 600 482.7 642.8 489.3C685.7 496 728.3 502 771.2 508.2C814 514.3 857 520.7 878.5 523.8L900 527L900 601L878.5 601C857 601 814 601 771.2 601C728.3 601 685.7 601 642.8 601C600 601 557 601 514.2 601C471.3 601 428.7 601 385.8 601C343 601 300 601 257.2 601C214.3 601 171.7 601 128.8 601C86 601 43 601 21.5 601L0 601Z" fill="#c97d3d"></path></svg>